HIERARCHY
ROOT SpineBase
{
  OFFSET 0.000000 0.000000 0.000000
  CHANNELS 6 Xposition Yposition Zposition Zrotation Xrotation Yrotation
  JOINT SpineMid
  {
    OFFSET -0.000000 28.139056 0.000000
    CHANNELS 3 Zrotation Xrotation Yrotation
    JOINT SpineShoulder
    {
      OFFSET -0.007233 20.878025 -0.780834
      CHANNELS 3 Zrotation Xrotation Yrotation
      JOINT Neck
      {
        OFFSET 0.006941 6.911728 -0.550029
        CHANNELS 3 Zrotation Xrotation Yrotation
        JOINT Head
        {
          OFFSET -2.270032 11.866691 -0.422085
          CHANNELS 3 Zrotation Xrotation Yrotation
          End Site
          {
            OFFSET 0 0 0
          }
        }
      }
      JOINT ShoulderLeft
      {
        OFFSET -16.454179 -1.762800 4.917236
        CHANNELS 3 Zrotation Xrotation Yrotation
        JOINT ElbowLeft
        {
          OFFSET -2.907730 -25.306259 0.566573
          CHANNELS 3 Zrotation Xrotation Yrotation
          JOINT WristLeft
          {
            OFFSET -1.837139 -22.556879 -4.883032
            CHANNELS 3 Zrotation Xrotation Yrotation
            JOINT HandLeft
            {
              OFFSET 1.005033 -6.604812 -1.997776
              CHANNELS 3 Zrotation Xrotation Yrotation
              JOINT HandTipLeft
              {
                OFFSET -0.292900 -6.967955 -0.568384
                CHANNELS 3 Zrotation Xrotation Yrotation
                End Site
                {
                  OFFSET 0 0 0
                }
              }
              JOINT ThumbLeft
              {
                OFFSET 3.312792 0.141891 -3.345605
                CHANNELS 3 Zrotation Xrotation Yrotation
                End Site
                {
                  OFFSET 0 0 0
                }
              }
            }
          }
        }
      }
      JOINT ShoulderRight
      {
        OFFSET 15.321332 -1.269860 -4.593611
        CHANNELS 3 Zrotation Xrotation Yrotation
        JOINT ElbowRight
        {
          OFFSET 6.113886 -24.725869 -3.307356
          CHANNELS 3 Zrotation Xrotation Yrotation
          JOINT WristRight
          {
            OFFSET -0.670098 -17.856407 -6.391291
            CHANNELS 3 Zrotation Xrotation Yrotation
            JOINT HandRight
            {
              OFFSET -2.858411 -7.296923 -0.959059
              CHANNELS 3 Zrotation Xrotation Yrotation
              JOINT HandTipRight
              {
                OFFSET -0.696818 -6.077144 -2.455047
                CHANNELS 3 Zrotation Xrotation Yrotation
                End Site
                {
                  OFFSET 0 0 0
                }
              }
              JOINT ThumbRight
              {
                OFFSET 1.323081 -2.737459 -2.669450
                CHANNELS 3 Zrotation Xrotation Yrotation
                End Site
                {
                  OFFSET 0 0 0
                }
              }
            }
          }
        }
      }
    }
  }
  JOINT HipLeft
  {
    OFFSET -5.895101 0.189189 -1.711494
    CHANNELS 3 Zrotation Xrotation Yrotation
    JOINT KneeLeft
    {
      OFFSET -6.935738 -31.205630 2.594651
      CHANNELS 3 Zrotation Xrotation Yrotation
      JOINT AnkleLeft
      {
        OFFSET -1.991299 -37.404582 6.882475
        CHANNELS 3 Zrotation Xrotation Yrotation
        JOINT FootLeft
        {
          OFFSET -1.652367 -8.687736 -4.243534
          CHANNELS 3 Zrotation Xrotation Yrotation
          End Site
          {
            OFFSET 0 0 0
          }
        }
      }
    }
  }
  JOINT HipRight
  {
    OFFSET 5.398718 1.093994 -4.817093
    CHANNELS 3 Zrotation Xrotation Yrotation
    JOINT KneeRight
    {
      OFFSET 5.621289 -25.241134 0.750174
      CHANNELS 3 Zrotation Xrotation Yrotation
      JOINT AnkleRight
      {
        OFFSET 1.818235 -37.040304 9.248902
        CHANNELS 3 Zrotation Xrotation Yrotation
        JOINT FootRight
        {
          OFFSET -2.695295 -4.968085 -10.459268
          CHANNELS 3 Zrotation Xrotation Yrotation
          End Site
          {
            OFFSET 0 0 0
          }
        }
      }
    }
  }
}
MOTION
Frames: 8
Frame Time: 0.033333
29.309542 77.240613 371.959945 0.000000 0.000000 15.375305 -0.000000 0.000000 -15.375305 -0.000000 0.000000 0.000000 -0.000000 0.000000 0.000000 0.000000 0.000000 0.000000 -0.000000 0.000000 0.000000 -0.000000 0.000000 0.000000 -0.000000 0.000000 0.000000 -0.000000 0.000000 0.000000 0.000000 0.000000 0.000000 0.000000 0.000000 0.000000 -0.000000 0.000000 0.000000 -0.000000 0.000000 0.000000 -0.000000 0.000000 0.000000 -0.000000 0.000000 0.000000 0.000000 0.000000 0.000000 0.000000 0.000000 0.000000 -0.000000 0.000000 -15.375305 -0.000000 0.000000 0.000000 -0.000000 0.000000 0.000000 0.000000 0.000000 0.000000 -0.000000 0.000000 -15.375305 -0.000000 0.000000 0.000000 -0.000000 0.000000 0.000000 0.000000 0.000000 0.000000
29.347514 77.197981 371.870993 -0.027815 -0.015190 15.208030 0.030825 0.007362 -15.208035 -0.000000 0.000000 0.000000 -0.000000 0.000000 0.000000 0.000000 0.000000 0.000000 -0.446258 -0.859092 0.085324 0.447587 0.858400 -0.092022 2.708135 0.404842 -0.763681 0.302671 5.120481 0.139115 0.000000 0.000000 0.000000 0.000000 0.000000 0.000000 -0.000000 0.000000 0.000000 -0.000000 0.000000 0.000000 4.326611 0.136347 -0.636810 -4.324850 -0.183992 0.624712 0.000000 0.000000 0.000000 0.000000 0.000000 0.000000 0.030825 0.007362 -15.208035 -0.000000 0.000000 0.000000 -1.952340 12.337658 -1.127694 0.000000 0.000000 0.000000 0.030825 0.007362 -15.208035 -0.000000 0.000000 0.000000 -0.071091 0.774375 -0.266099 0.000000 0.000000 0.000000
29.381406 77.162860 371.789705 -0.052203 -0.036364 15.064133 0.059861 0.021547 -15.064161 -0.000000 0.000000 0.000000 -0.000000 0.000000 0.000000 0.000000 0.000000 0.000000 -0.829583 -1.599613 0.153479 -0.128705 1.494474 0.066082 6.362022 0.909756 -1.758193 0.548407 9.483173 0.072960 0.000000 0.000000 0.000000 0.000000 0.000000 0.000000 -0.000000 0.000000 0.000000 0.421829 -1.111546 -0.105560 7.168441 1.392780 -1.189524 -8.186035 0.301742 1.260399 0.000000 0.000000 0.000000 0.000000 0.000000 0.000000 0.059861 0.021547 -15.064161 -0.000000 0.000000 0.000000 -3.508879 22.579748 -1.754405 0.000000 0.000000 0.000000 0.059861 0.021547 -15.064161 -0.729750 0.499332 -0.154745 0.574413 1.004753 -0.318749 0.000000 0.000000 0.000000
29.411219 77.135248 371.716082 -0.073197 -0.063516 14.943318 0.087100 0.042493 -14.943391 -0.000000 0.000000 0.000000 -0.000000 0.000000 0.000000 0.000000 0.000000 0.000000 -1.150022 -2.220422 0.206798 -0.138612 2.051349 0.090999 9.319578 1.394215 -2.607425 0.727381 12.871523 -0.108058 0.000000 0.000000 0.000000 0.000000 0.000000 0.000000 -0.000000 0.000000 0.000000 0.722805 -1.753406 -0.182894 9.224909 2.206163 -1.677879 -10.693851 -0.111042 1.700446 0.000000 0.000000 0.000000 0.000000 0.000000 0.000000 0.087100 0.042493 -14.943391 -0.000000 0.000000 0.000000 -4.764486 30.507220 -2.028365 0.000000 0.000000 0.000000 0.087100 0.042493 -14.943391 -1.001428 0.728696 -0.208342 0.750621 1.460225 -0.420852 0.000000 0.000000 0.000000
29.436954 77.115146 371.650124 -0.090820 -0.096646 14.845309 0.112551 0.070151 -14.845455 -0.000000 0.000000 0.000000 0.125398 0.899429 0.175547 0.000000 0.000000 0.000000 -1.407638 -2.720771 0.247252 -0.100775 2.481559 0.102785 12.048326 1.906883 -3.415440 0.841411 15.162999 -0.306411 0.000000 0.000000 0.000000 0.000000 0.000000 0.000000 -0.000000 0.000000 0.000000 1.072474 -2.431501 -0.272018 10.432459 3.104913 -2.091386 -12.285741 -0.899585 2.039975 0.000000 0.000000 0.000000 0.000000 0.000000 0.000000 0.112551 0.070151 -14.845455 -0.302486 0.749651 -0.093688 -5.508224 35.644800 -2.045761 0.000000 0.000000 0.000000 -0.433269 -0.546340 -15.022660 -0.858350 1.683605 -0.060793 0.863852 1.880162 -0.484785 0.000000 0.000000 0.000000
29.458609 77.102555 371.591829 -0.105094 -0.135767 14.769847 0.136233 0.104489 -14.770096 -0.000000 0.000000 0.000000 0.147353 1.009051 0.196987 0.000000 0.000000 0.000000 -1.602491 -3.100194 0.276444 -0.010302 2.785863 0.097509 14.491164 2.455745 -4.165900 0.906204 16.308741 -0.432150 0.000000 0.000000 0.000000 0.000000 0.000000 0.000000 -0.000000 0.000000 0.000000 1.460029 -3.128653 -0.369082 10.854713 4.092876 -2.416726 -13.009077 -2.066629 2.295771 0.000000 0.000000 0.000000 0.000000 0.000000 0.000000 0.136233 0.104489 -14.770096 -0.312596 0.887629 -0.102483 -6.344581 39.763203 -1.967992 0.000000 0.000000 0.000000 -0.487495 -0.662333 -14.985914 -0.999427 2.065448 -0.046849 0.919533 2.262061 -0.511011 0.000000 0.000000 0.000000
29.469928 77.090277 371.544852 -0.122460 -0.202030 14.709268 0.169745 0.164314 -14.709727 -0.000000 0.000000 0.000000 0.198463 1.219906 0.238327 0.000000 0.000000 0.000000 -1.656797 -3.183007 0.282050 0.114904 2.805526 0.074260 17.512711 2.673646 -5.148472 1.350607 17.843867 -0.672643 0.000000 0.000000 0.000000 0.000000 0.000000 0.000000 -0.000000 0.000000 0.000000 2.198641 -3.908306 -0.572702 10.239836 5.043260 -2.418115 -12.115667 -3.592211 2.157952 0.000000 0.000000 0.000000 0.000000 0.000000 0.000000 0.169745 0.164314 -14.709727 -0.290370 0.973427 -0.102932 -7.482630 46.147966 -1.897628 0.000000 0.000000 0.000000 -0.709400 -0.948041 -15.022188 -0.921748 2.906582 0.064764 0.591343 3.929709 -0.754491 0.000000 0.000000 0.000000
29.479574 77.101355 371.512136 -0.126758 -0.248981 14.694528 0.185771 0.208682 -14.695142 -0.000000 0.000000 0.000000 0.203401 1.141732 0.223625 0.000000 0.000000 0.000000 -1.596340 -3.056312 0.272328 0.173513 2.364145 0.077032 19.880592 2.971382 -6.041504 0.977673 17.907757 -0.503679 0.000000 0.000000 0.000000 0.000000 0.000000 0.000000 -0.000000 0.000000 0.000000 2.798874 -4.919913 -0.708519 8.250170 6.421448 -2.257867 -11.080203 -6.974390 2.620260 0.000000 0.000000 0.000000 0.000000 0.000000 0.000000 -0.537304 -0.310447 -14.590781 0.327048 1.909437 -0.213248 -8.393570 47.537528 -1.444885 0.000000 0.000000 0.000000 -0.648073 -1.095006 -15.043885 -1.157001 3.393698 0.096322 1.105474 0.668461 -0.004459 0.000000 0.000000 0.000000
